<svg width="60" height="50" viewBox="0 0 60 50" fill="none" xmlns="http://www.w3.org/2000/svg">
<g clip-path="url(#clip0_57_6)">
<path d="M15.521 0.27523C14.2825 2.20183 12.5394 5.43578 12.677 5.57339C12.7687 5.66514 19.1449 5.77982 26.8284 5.80275C39.5807 5.84862 40.7963 5.87156 40.8651 6.2156C40.9109 6.44495 40.4981 7.29358 39.9935 8.1422C39.466 9.01376 38.9385 9.93119 38.8238 10.1835C38.6862 10.4587 38.4568 10.9174 38.2733 11.2156C38.1128 11.5367 38.021 11.8807 38.0669 11.9725C38.2504 12.2706 51.232 12.1789 51.232 11.8807C51.232 11.7431 50.9339 11.1239 50.544 10.5046C50.1541 9.90826 49.8559 9.31193 49.8559 9.19725C49.8559 9.1055 49.5577 8.57798 49.1678 8.07339C48.8008 7.54587 48.4797 7.04128 48.4797 6.97248C48.4797 6.88073 48.044 6.07798 47.4935 5.18349C46.943 4.28899 46.4385 3.3945 46.3467 3.21101C46.255 3.02752 45.9797 2.54587 45.7275 2.1789C45.4752 1.78899 45.1541 1.23853 45.0394 0.917431C44.9018 0.619266 44.6495 0.275229 44.5119 0.183486C44.3513 0.0917429 37.8146 0 29.9706 0C18.8008 0 15.6586 0.0688075 15.521 0.27523ZM8.43387 12.6835C8.25039 12.7982 7.99809 13.0963 7.86048 13.3716C7.7458 13.6468 7.56231 14.0367 7.4247 14.2202C6.7825 15.2064 5.13112 18.0734 5.13112 18.211C5.13112 18.3028 4.94763 18.6468 4.69534 18.9908C4.46598 19.3349 3.68616 20.6422 2.95222 21.9037C2.21827 23.1651 1.5302 24.2202 1.41552 24.2661C1.09442 24.4037 1.2091 25.0917 1.73662 25.9174C2.69993 27.4312 2.81461 27.6376 3.04396 28.1422C3.45681 29.0596 4.44305 30.5046 4.64947 30.5046C4.76415 30.5046 5.10818 30 5.42928 29.4037C6.55314 27.2706 9.25956 22.5688 9.97057 21.5138C10.2229 21.1697 10.4063 20.8257 10.4063 20.7569C10.4063 20.6881 11.1862 19.3349 12.1265 17.7523C13.0669 16.1697 13.8467 14.8165 13.8467 14.7248C13.8467 14.656 14.1219 14.1972 14.443 13.7156C14.7871 13.2339 14.9935 12.7523 14.9018 12.6605C14.6495 12.4312 8.84672 12.4541 8.43387 12.6835ZM23.755 12.6147C22.7229 12.7294 22.7229 12.7294 21.6219 14.9083C21.3467 15.4817 20.7733 16.445 20.3834 17.0872C19.9706 17.7064 19.3054 18.8532 18.8926 19.6101C18.4797 20.367 18.021 21.1468 17.8834 21.3303C17.7458 21.5138 17.4247 22.0413 17.1724 22.4771C16.3697 23.922 15.7045 25.0917 15.2229 25.9174C14.3972 27.3165 13.8008 28.3486 11.1403 32.9817L8.52562 37.5L8.93846 38.3028C9.16782 38.7385 9.78708 39.8165 10.3146 40.711C10.8192 41.5826 11.3238 42.5459 11.4155 42.8211C11.5073 43.1193 11.6678 43.3486 11.7596 43.3486C11.8513 43.3486 12.1495 43.7844 12.4476 44.3119C12.7229 44.8624 13.1586 45.5963 13.4109 45.9862C13.6403 46.3532 13.9843 46.9725 14.1678 47.3624C14.3513 47.7294 14.81 48.4862 15.1999 49.0367L15.9109 50H44.3742L44.7641 49.3119C44.9706 48.945 45.2229 48.6239 45.3375 48.6239C45.4293 48.6239 45.4981 48.5092 45.4981 48.3716C45.4981 48.2339 45.8421 47.5229 46.2779 46.8119C46.6908 46.1009 47.333 45 47.677 44.3807C48.021 43.7385 49.0073 42.0413 49.8559 40.5963C55.0853 31.6743 54.9935 31.8578 54.6495 31.6284C54.466 31.5138 54.0302 31.4679 53.6632 31.5367C53.2963 31.6055 51.943 31.6514 50.6586 31.6514H48.2963L46.8742 34.1055C46.0944 35.4817 44.5807 38.0505 43.5256 39.8394C42.4706 41.6284 41.599 43.1881 41.599 43.3257C41.599 44.0138 40.544 44.0826 29.833 44.0596C23.8926 44.0367 19.0302 44.0138 19.0073 43.9679C18.4109 43.211 15.4522 37.867 15.4522 37.5917C15.4522 37.3624 15.9109 36.3991 16.4843 35.4817C17.0577 34.5413 17.5164 33.6927 17.5164 33.6239C17.5164 33.5321 17.7687 33.1193 18.0898 32.7064C18.4109 32.2936 18.6632 31.8807 18.6632 31.789C18.6632 31.6972 19.1908 30.7569 19.81 29.6789C20.4522 28.6009 20.9568 27.7064 20.9568 27.6606C20.9568 27.5688 23.5715 23.0963 24.5119 21.6055C24.8559 21.078 25.3834 20.1606 25.6816 19.5642C26.0027 18.9679 26.7825 17.6376 27.4018 16.5826C28.021 15.5275 28.5256 14.6101 28.5256 14.5183C28.5256 14.4495 28.8008 14.0367 29.1219 13.6009C29.443 13.1651 29.6495 12.7523 29.5807 12.6605C29.3972 12.4771 25.1541 12.4541 23.755 12.6147Z" fill="black"/>
<path d="M33.5945 19.4723C33.2734 19.8392 32.7459 20.642 32.4248 21.2383C31.6679 22.7291 30.9798 23.9677 25.2917 33.7613C24.7871 34.5869 24.3972 35.3668 24.3972 35.4585C24.3972 35.5502 24.1679 35.8713 23.9156 36.1466C23.2963 36.8117 23.4798 37.4998 24.2367 37.2934C24.5119 37.2246 27.5853 37.1558 31.0715 37.1558H37.3789L37.8835 36.1695C38.5257 34.931 39.3284 33.5319 39.856 32.7521C40.567 31.6741 40.3605 31.5824 36.989 31.5594C33.9844 31.5365 33.9156 31.5365 33.8468 31.0319C33.8009 30.7108 34.2367 29.7246 34.9706 28.509C35.6358 27.408 36.3697 26.1236 36.5991 25.642L37.0119 24.7704H47.7917C54.5578 24.7704 58.5716 24.6787 58.5716 24.5411C58.5716 24.2888 55.911 19.7704 55.4064 19.197C55.0853 18.8301 54.3284 18.8071 44.6266 18.8071L34.1908 18.8301L33.5945 19.4723Z" fill="black"/>
</g>
<defs>
<clipPath id="clip0_57_6">
<rect width="59.6659" height="50" fill="white"/>
</clipPath>
</defs>
</svg>
